<svg width="100" height="100" xmlns="http://www.w3.org/2000/svg">M33.012,18.523L6.631,43.56c-0.537,0.537,0.17,2.115,0.707,2.652l0.884,0.884c0.402,0.402,1.386,0.898,2.081,0.898   
 c0.234,0,0.436-0.058,0.571-0.191l25.129-26.479c0.702,0.345,1.437,0.54,2.181,0.607c2.229,0.204,4.553-0.773,6.422-2.642  
 c6.336-6.335,7.473-7.73,5.528-10.171l-7.479,7.168c-0.167,0.167-0.402,0.269-0.64,0.269c-0.213,0-0.409-0.081-0.554-0.227   
 l-0.2-0.199c-0.146-0.146-0.226-0.343-0.226-0.555c0.001-0.236,0.102-0.471,0.276-0.646l6.789-7.965   
 c-0.16-0.16-0.313-0.313-0.485-0.485c-0.291-0.291-0.562-0.563-0.818-0.822l-7.995,6.82c-0.146,0.148-0.381,0.249-0.617,0.249  
 c-0.213,0-0.409-0.081-0.554-0.227l-0.2-0.199c-0.146-0.146-0.226-0.343-0.226-0.555c0.001-0.236,0.102-0.471,0.276-0.646 
 l7.132-7.442c-2.301-1.672-3.699-0.278-9.811,5.833c-2.033,2.033-3.01,4.604-2.559,7.003    C32.377,17.191,32.629,17.872,33.012,18.523z

 <g>
  <title>background</title>
  <rect fill="none" id="canvas_background" height="103.010398" width="103.010398" y="-1" x="-1"/>
 </g>
 <g>
  <title>Layer 1</title>
  <path fill="#444444" id="svg_2" d="m69.89103,86.117646c0.788866,0.852 3.111311,-0.269721 3.901648,-1.121721l1.30104,-1.402548c0.790338,-0.852 1.830875,-3.355644 1.040538,-4.207644l-19.561226,-20.011693l-5.114383,5.808516l18.432382,20.93509l0.000001,0z" stroke="null"/>
  <path fill="#444444" id="svg_3" d="m38.157095,39.947135c2.44065,-5.013997 1.150451,-11.091823 -2.693325,-15.632267c-4.542516,-5.36416 -14.350286,-10.611599 -18.891391,-5.245772c-4.542516,5.365828 -0.100223,16.951213 4.440881,22.315373c3.770373,4.453737 8.794244,6.007793 12.993742,3.341553l8.890232,11.068478l4.69638,-5.264114l-9.43652,-10.583253l0.000001,0.000002z" stroke="null"/>
  <path fill="#444444" id="svg_4" d="m61.573902,39.644161l-38.222295,40.618484c-0.778036,0.871196 0.246306,3.431245 1.024342,4.302441l1.28079,1.434147c0.58244,0.65218 2.008116,1.45686 3.015071,1.45686c0.339033,0 0.631702,-0.094096 0.827297,-0.309867l36.408326,-42.957896c1.017098,0.559707 2.082007,0.876063 3.159957,0.984759c3.229502,0.330957 6.596646,-1.254068 9.304559,-4.286218c9.179958,-10.277513 10.827308,-12.540675 8.009281,-16.500803l-10.836001,11.628921c-0.241959,0.27093 -0.58244,0.436409 -0.927268,0.436409c-0.308607,0 -0.592582,-0.131409 -0.802667,-0.368271l-0.289771,-0.322845c-0.211533,-0.236861 -0.327442,-0.556462 -0.327442,-0.900398c0.001449,-0.382872 0.147783,-0.764121 0.399885,-1.048031l9.83629,-12.921925c-0.231817,-0.259574 -0.453492,-0.507792 -0.702696,-0.786834c-0.421617,-0.4721 -0.814258,-0.913376 -1.185165,-1.333562l-11.583611,11.064347c-0.211533,0.240106 -0.552014,0.403962 -0.893945,0.403962c-0.308607,0 -0.592582,-0.131409 -0.802667,-0.368271l-0.289771,-0.322845c-0.211533,-0.236861 -0.327442,-0.556462 -0.327442,-0.900398c0.001449,-0.382872 0.147783,-0.764121 0.399885,-1.048031l10.333248,-12.073442c-3.33382,-2.71255 -5.359322,-0.45101 -14.214736,9.463099c-2.945526,3.298214 -4.361059,7.469246 -3.707625,11.361235c0.194147,1.134014 0.559259,2.238827 1.114171,3.294969l0,0.000004z" stroke="null" transform="rotate(-0.2923088073730469 55.352809906007565,50.960289001465554) "/>
 </g></svg>