<svg width="250" height="250" xmlns="http://www.w3.org/2000/svg">M33.012,18.523L6.631,43.56c-0.537,0.537,0.17,2.115,0.707,2.652l0.884,0.884c0.402,0.402,1.386,0.898,2.081,0.898   
 c0.234,0,0.436-0.058,0.571-0.191l25.129-26.479c0.702,0.345,1.437,0.54,2.181,0.607c2.229,0.204,4.553-0.773,6.422-2.642  
 c6.336-6.335,7.473-7.73,5.528-10.171l-7.479,7.168c-0.167,0.167-0.402,0.269-0.64,0.269c-0.213,0-0.409-0.081-0.554-0.227   
 l-0.2-0.199c-0.146-0.146-0.226-0.343-0.226-0.555c0.001-0.236,0.102-0.471,0.276-0.646l6.789-7.965   
 c-0.16-0.16-0.313-0.313-0.485-0.485c-0.291-0.291-0.562-0.563-0.818-0.822l-7.995,6.82c-0.146,0.148-0.381,0.249-0.617,0.249  
 c-0.213,0-0.409-0.081-0.554-0.227l-0.2-0.199c-0.146-0.146-0.226-0.343-0.226-0.555c0.001-0.236,0.102-0.471,0.276-0.646 
 l7.132-7.442c-2.301-1.672-3.699-0.278-9.811,5.833c-2.033,2.033-3.01,4.604-2.559,7.003    C32.377,17.191,32.629,17.872,33.012,18.523z

 <g>
  <title>background</title>
  <rect fill="none" id="canvas_background" height="252" width="252" y="-1" x="-1"/>
 </g>
 <g>
  <title>Layer 1</title>
  <path id="svg_1" d="m32.08782,144.29798l0,-84.82642c0,-4.71363 3.87134,-8.53496 8.64739,-8.53496l85.89951,0c4.77571,0 8.64704,3.82133 8.64704,8.53496l0,84.82675c0,1.5712 -1.29022,2.84499 -2.88246,2.84499l-97.42902,0c-1.59222,0 -2.88246,-1.27379 -2.88246,-2.84532zm69.36653,29.05972c0,9.77648 -8.03016,17.70192 -17.93508,17.70192c-9.90493,0 -17.93509,-7.92544 -17.93509,-17.70192c0,-9.77681 8.03016,-17.70192 17.93509,-17.70192c9.90493,0 17.93508,7.92511 17.93508,17.70192zm-8.96786,0c0,-4.88825 -4.01492,-8.85096 -8.96755,-8.85096s-8.96788,3.96271 -8.96788,8.85096s4.01525,8.85128 8.96788,8.85128s8.96755,-3.96304 8.96755,-8.85129l0,0.00001zm-24.41461,-17.70225l-40.18942,0c-1.59191,0 -2.88246,1.27379 -2.88246,2.84499l0,8.63139c0,1.57121 1.29055,2.84498 2.88246,2.84498l32.21373,0c0.84099,-5.69583 3.75383,-10.72709 7.97569,-14.32136zm127.22137,17.70225c0,9.77648 -8.03016,17.70192 -17.93509,17.70192c-9.90525,0 -17.93508,-7.92544 -17.93508,-17.70192c0,-9.77681 8.02983,-17.70192 17.93508,-17.70192c9.90493,-0.00033 17.93509,7.92511 17.93509,17.70192zm-8.96721,0c0,-4.88825 -4.01525,-8.85096 -8.96788,-8.85096c-4.95296,0 -8.96755,3.96271 -8.96755,8.85096s4.01492,8.85128 8.96755,8.85128s8.96788,-3.96304 8.96788,-8.85129l0,0.00001zm40.67395,-14.85726l0,8.63139c0,1.57121 -1.29055,2.84498 -2.88246,2.84498l-23.33694,0c-1.66915,-11.29883 -11.52126,-20.01134 -23.42177,-20.01134c-11.90281,0 -21.75527,8.71284 -23.42441,20.01134l-46.99206,0c-0.84134,-5.69551 -3.75384,-10.72709 -7.9757,-14.32136l44.55684,0l0,-81.3755c0,-3.14241 2.58112,-5.68996 5.76492,-5.68996l27.21224,0c7.66214,0 14.82356,3.7565 19.11079,10.02407l17.54298,25.64528c2.57318,3.76171 3.94823,8.19681 3.94823,12.73582l0,38.66029l7.01488,0c1.59191,0 2.88246,1.27377 2.88246,2.84499zm-29.24114,-53.58435l-14.02811,-19.67448c-0.54,-0.75709 -1.41929,-1.20764 -2.35733,-1.20764l-21.88169,0c-1.59157,0 -2.88245,1.27377 -2.88245,2.84499l0,19.67448c0,1.57154 1.29055,2.84499 2.88245,2.84499l35.91046,0c2.33488,0 3.70069,-2.59741 2.35667,-4.48234z" stroke="null"/>
  <path fill="#008cba" id="svg_2" d="m99.17394,134.65316c0.78887,0.852 3.11131,-0.26972 3.90165,-1.12172l1.30104,-1.40255c0.79034,-0.852 1.83087,-3.35565 1.04054,-4.20765l-19.56123,-20.01169l-5.11438,5.80852l18.43238,20.93509z" stroke="null"/>
  <path fill="#008cba" id="svg_3" d="m67.44001,88.48265c2.44065,-5.014 1.15045,-11.09183 -2.69333,-15.63227c-4.54252,-5.36416 -14.35029,-10.6116 -18.89139,-5.24577c-4.54252,5.36583 -0.10022,16.95121 4.44088,22.31537c3.77037,4.45374 8.79424,6.00779 12.99374,3.34155l8.89023,11.06848l4.69639,-5.26411l-9.43653,-10.58326l0.00001,0.00001z" stroke="null"/>
  <path fill="#008cba" id="svg_4" d="m90.85681,88.17967l-38.22229,40.61849c-0.77804,0.87119 0.2463,3.43124 1.02434,4.30244l1.28079,1.43414c0.58244,0.65218 2.00812,1.45686 3.01507,1.45686c0.33903,0 0.6317,-0.09409 0.8273,-0.30986l36.40833,-42.9579c1.01709,0.55971 2.082,0.87606 3.15995,0.98476c3.2295,0.33096 6.59665,-1.25407 9.30456,-4.28622c9.17996,-10.27751 10.82731,-12.54067 8.00928,-16.5008l-10.836,11.62892c-0.24196,0.27093 -0.58244,0.43641 -0.92727,0.43641c-0.3086,0 -0.59258,-0.13141 -0.80266,-0.36827l-0.28977,-0.32285c-0.21154,-0.23686 -0.32745,-0.55646 -0.32745,-0.9004c0.00145,-0.38287 0.14779,-0.76412 0.39989,-1.04803l9.83629,-12.92192c-0.23182,-0.25958 -0.45349,-0.50779 -0.7027,-0.78684c-0.42161,-0.4721 -0.81426,-0.91337 -1.18516,-1.33356l-11.58361,11.06435c-0.21154,0.24011 -0.55202,0.40396 -0.89395,0.40396c-0.30861,0 -0.59258,-0.13141 -0.80267,-0.36827l-0.28977,-0.32284c-0.21153,-0.23687 -0.32744,-0.55647 -0.32744,-0.9004c0.00145,-0.38287 0.14778,-0.76412 0.39989,-1.04803l10.33324,-12.07344c-3.33382,-2.71255 -5.35932,-0.45101 -14.21473,9.46309c-2.94553,3.29822 -4.36106,7.46925 -3.70763,11.36124c0.19415,1.13401 0.55926,2.23883 1.11417,3.29497z" stroke="null" transform="rotate(-0.2923088073730469 84.63571929932024,99.49580383300547) "/>
 </g></svg>