<svg width="250" height="250" xmlns="http://www.w3.org/2000/svg">M33.012,18.523L6.631,43.56c-0.537,0.537,0.17,2.115,0.707,2.652l0.884,0.884c0.402,0.402,1.386,0.898,2.081,0.898   
 c0.234,0,0.436-0.058,0.571-0.191l25.129-26.479c0.702,0.345,1.437,0.54,2.181,0.607c2.229,0.204,4.553-0.773,6.422-2.642  
 c6.336-6.335,7.473-7.73,5.528-10.171l-7.479,7.168c-0.167,0.167-0.402,0.269-0.64,0.269c-0.213,0-0.409-0.081-0.554-0.227   
 l-0.2-0.199c-0.146-0.146-0.226-0.343-0.226-0.555c0.001-0.236,0.102-0.471,0.276-0.646l6.789-7.965   
 c-0.16-0.16-0.313-0.313-0.485-0.485c-0.291-0.291-0.562-0.563-0.818-0.822l-7.995,6.82c-0.146,0.148-0.381,0.249-0.617,0.249  
 c-0.213,0-0.409-0.081-0.554-0.227l-0.2-0.199c-0.146-0.146-0.226-0.343-0.226-0.555c0.001-0.236,0.102-0.471,0.276-0.646 
 l7.132-7.442c-2.301-1.672-3.699-0.278-9.811,5.833c-2.033,2.033-3.01,4.604-2.559,7.003    C32.377,17.191,32.629,17.872,33.012,18.523z

 <g>
  <title>background</title>
  <rect x="-1" y="-1" width="252" height="252" id="canvas_background" fill="none"/>
 </g>
 <g>
  <title>Layer 1</title>
  <path stroke="null" d="m32.087818,144.297978l0,-84.826414c0,-4.713631 3.871338,-8.534967 8.64739,-8.534967l85.89951,0c4.775707,0 8.647045,3.821336 8.647045,8.534967l0,84.826745c0,1.571205 -1.290222,2.844989 -2.882458,2.844989l-97.429029,0c-1.59222,0 -2.882458,-1.273784 -2.882458,-2.845319zm69.366534,29.059717c0,9.776489 -8.030157,17.701929 -17.935086,17.701929c-9.90493,0 -17.935086,-7.92544 -17.935086,-17.701929c0,-9.776803 8.030157,-17.701913 17.935086,-17.701913c9.90493,0 17.935086,7.92511 17.935086,17.701913zm-8.967863,0c0,-4.888244 -4.014922,-8.850957 -8.967551,-8.850957s-8.96788,3.962712 -8.96788,8.850957s4.015251,8.851287 8.96788,8.851287s8.967551,-3.963042 8.967551,-8.851287zm-24.414606,-17.702243l-40.189425,0c-1.591908,0 -2.882458,1.273784 -2.882458,2.844989l0,8.631393c0,1.571205 1.29055,2.844973 2.882458,2.844973l32.213727,0c0.840993,-5.695827 3.753833,-10.727083 7.975699,-14.321355zm127.221367,17.702243c0,9.776489 -8.030157,17.701929 -17.935086,17.701929c-9.905258,0 -17.935086,-7.92544 -17.935086,-17.701929c0,-9.776803 8.029828,-17.701913 17.935086,-17.701913c9.90493,-0.00033 17.935086,7.92511 17.935086,17.701913zm-8.967207,0c0,-4.888244 -4.015251,-8.850957 -8.96788,-8.850957c-4.952958,0 -8.967551,3.962712 -8.967551,8.850957s4.014922,8.851287 8.967551,8.851287s8.96788,-3.963042 8.96788,-8.851287zm40.673946,-14.857254l0,8.631393c0,1.571205 -1.29055,2.844973 -2.882458,2.844973l-23.336944,0c-1.669144,-11.298829 -11.521258,-20.011334 -23.421767,-20.011334c-11.902808,0 -21.755268,8.712835 -23.424412,20.011334l-46.992062,0c-0.841338,-5.695512 -3.753833,-10.727083 -7.975699,-14.321355l44.556846,0l0,-81.375499c0,-3.14241 2.581116,-5.689962 5.764915,-5.689962l27.21224,0c7.662139,0 14.823564,3.756497 19.110792,10.02407l17.542977,25.645277c2.573184,3.761717 3.948229,8.196809 3.948229,12.735827l0,38.660287l7.014885,0c1.591908,0 2.882458,1.273768 2.882458,2.844989zm-29.241141,-53.584346l-14.028111,-19.67448c-0.539997,-0.757098 -1.419288,-1.20764 -2.357323,-1.20764l-21.88169,0c-1.591579,0 -2.882458,1.273768 -2.882458,2.844989l0,19.67448c0,1.571535 1.29055,2.844989 2.882458,2.844989l35.910458,0c2.334874,0 3.700689,-2.597408 2.356667,-4.482338z" id="svg_1"/>
  <path stroke="null" d="m99.173941,134.653157c0.788866,0.852 3.111311,-0.269721 3.901648,-1.121721l1.30104,-1.402548c0.790338,-0.852 1.830875,-3.355644 1.040538,-4.207644l-19.561226,-20.011693l-5.114383,5.808516l18.432382,20.93509z" id="svg_2" fill="#ff7f00"/>
  <path stroke="null" d="m67.440006,88.482646c2.44065,-5.013997 1.150451,-11.091823 -2.693325,-15.632267c-4.542516,-5.36416 -14.350286,-10.611599 -18.891391,-5.245772c-4.542516,5.365828 -0.100223,16.951213 4.440881,22.315373c3.770373,4.453737 8.794244,6.007793 12.993742,3.341553l8.890232,11.068478l4.69638,-5.264114l-9.43652,-10.583253z" id="svg_3" fill="#ff7f00"/>
  <path transform="rotate(-0.2923088073730469 84.63572692870902,99.49580383300766) " stroke="null" d="m90.856814,88.179672l-38.222295,40.618484c-0.778036,0.871196 0.246306,3.431245 1.024342,4.302441l1.28079,1.434147c0.58244,0.65218 2.008116,1.45686 3.015071,1.45686c0.339033,0 0.631702,-0.094096 0.827297,-0.309867l36.408326,-42.957896c1.017098,0.559707 2.082007,0.876063 3.159957,0.984759c3.229502,0.330957 6.596646,-1.254068 9.304559,-4.286218c9.179958,-10.277513 10.827308,-12.540675 8.009281,-16.500803l-10.836001,11.628921c-0.241959,0.27093 -0.58244,0.436409 -0.927268,0.436409c-0.308607,0 -0.592582,-0.131409 -0.802667,-0.368271l-0.289771,-0.322845c-0.211533,-0.236861 -0.327442,-0.556462 -0.327442,-0.900398c0.001449,-0.382872 0.147783,-0.764121 0.399885,-1.048031l9.83629,-12.921925c-0.231817,-0.259574 -0.453492,-0.507792 -0.702696,-0.786834c-0.421617,-0.4721 -0.814258,-0.913376 -1.185165,-1.333562l-11.583611,11.064347c-0.211533,0.240106 -0.552014,0.403962 -0.893945,0.403962c-0.308607,0 -0.592582,-0.131409 -0.802667,-0.368271l-0.289771,-0.322845c-0.211533,-0.236861 -0.327442,-0.556462 -0.327442,-0.900398c0.001449,-0.382872 0.147783,-0.764121 0.399885,-1.048031l10.333248,-12.073442c-3.33382,-2.71255 -5.359322,-0.45101 -14.214736,9.463099c-2.945526,3.298214 -4.361059,7.469246 -3.707625,11.361235c0.194147,1.134014 0.559259,2.238827 1.114171,3.294969z" id="svg_4" fill="#ff7f00"/>
 </g></svg>